<svg xmlns="http://www.w3.org/2000/svg" width="122" height="30" viewBox="0 0 122 30">
    <path fill="#FFF" fill-rule="evenodd" d="M106.274 0C114.958 0 122 6.717 122 15c0 8.286-7.042 15-15.726 15-8.687 0-15.728-6.714-15.728-15 0-8.283 7.04-15 15.728-15zm4.97 25.545c-.854 0-1.538.302-2.26.618-.806.353-1.639.718-2.78.718-1.015 0-1.792-.341-2.54-.672-.763-.336-1.482-.656-2.461-.656-.592 0-1.102.14-1.602.33-.038-.02-.076-.042-.113-.063a13.638 13.638 0 0 0 6.786 1.786c2.471 0 4.784-.647 6.762-1.773l-.116.066a4.084 4.084 0 0 0-1.676-.354zm.001-1.43c-.855 0-1.538.3-2.26.618-.807.353-1.639.718-2.781.718-1.018 0-1.79-.342-2.542-.674-.76-.338-1.48-.656-2.46-.656-.858 0-1.541.296-2.268.608-.226.096-.454.194-.689.285l.128.093c.097.07.195.137.294.204l-.149-.104c.084-.034.168-.072.253-.107.731-.314 1.49-.64 2.43-.64 1.07 0 1.862.35 2.628.69.743.328 1.447.638 2.375.638 1.056 0 1.848-.348 2.615-.683.728-.32 1.486-.651 2.426-.651 1.066 0 1.766.337 2.442.663l.28.133c-.124.083-.246.165-.372.245l-.087-.042c-.664-.32-1.29-.621-2.263-.621-.855 0-1.538.3-2.26.616-.807.352-1.639.72-2.781.72-1.018 0-1.79-.343-2.542-.676-.76-.336-1.48-.655-2.46-.655-.858 0-1.541.296-2.268.607-.014.007-.024.012-.04.014a12.568 12.568 0 0 0 .368.23l-.079-.049c.61-.249 1.253-.464 2.02-.464 1.065 0 1.86.35 2.628.691.742.328 1.445.636 2.372.636 1.056 0 1.849-.345 2.614-.682.73-.32 1.487-.651 2.427-.651.88 0 1.51.23 2.084.492.31-.186.61-.384.902-.594-.255-.105-.49-.216-.722-.33-.664-.32-1.29-.622-2.263-.622zM44.895 11.12c1.48 0 2.989.61 3.974 1.715v-1.272h4.003v13.584H48.87v-1.245h-.056c-.873 1.08-2.379 1.688-3.858 1.688-4.177 0-6.555-3.626-6.555-7.305 0-3.597 2.408-7.165 6.496-7.165zm18.737 0c3.828 0 4.93 2.574 4.93 5.728v8.298H64.5V17.5c-.004-1.543-.12-3.281-2.204-3.281-2.27 0-2.425 2.288-2.435 3.92v7.008h-4.063V11.564h4.062v1.245h.059c.84-1.218 2.262-1.688 3.712-1.688zm11.89-9.432v14.855h.06l4.262-4.98h5.277l-6 5.976 6.466 7.608H80.25l-4.668-5.783h-.06v5.783H71.46V1.688h4.06zm-46.72 2.6c4.058 0 6.553 1.52 6.553 5.672 0 1.493-.55 3.207-1.916 4.037 2.584.442 3.741 2.931 3.741 5.229 0 4.095-3.015 5.92-6.988 5.92h-6.698V4.288h5.308zm-21.058 0l-.173 9.046h.173c.175-.859.667-1.604 1.103-2.351l3.828-6.696h8.67L14.503 14.44l7.57 10.707h-9.223l-3.77-6.307c-.464-.803-1.16-1.577-1.335-2.435h-.173l.173 8.742H0V4.288h7.744zm103.501 19.11c-.855 0-1.538.302-2.26.618-.807.354-1.639.719-2.781.719-1.018 0-1.79-.342-2.542-.674-.76-.338-1.48-.656-2.46-.656-.858 0-1.541.295-2.268.608-.421.18-.854.364-1.331.501.188.156.38.306.576.451l-.115-.088-.178-.136c.303-.108.597-.233.885-.357.731-.316 1.49-.64 2.43-.64 1.07 0 1.862.35 2.628.69.743.328 1.447.638 2.375.638 1.056 0 1.848-.347 2.615-.683.728-.322 1.486-.652 2.426-.652 1.066 0 1.766.338 2.442.664.286.136.578.279.902.396-.12.09-.24.181-.358.268l.053-.038c.202-.147.399-.3.591-.457-.523-.142-.948-.345-1.367-.547-.664-.322-1.29-.624-2.263-.624zm0-1.431c-.855 0-1.538.3-2.26.619-.807.352-1.64.718-2.782.718-1.017 0-1.789-.344-2.54-.674-.764-.337-1.481-.655-2.461-.655-.86 0-1.543.295-2.268.607-.768.33-1.563.671-2.622.702.38.416.789.807 1.222 1.172l-.107-.093-.172-.152c.552-.13 1.04-.34 1.516-.544.731-.314 1.49-.641 2.43-.641 1.07 0 1.862.352 2.628.69.743.33 1.447.64 2.375.64 1.056 0 1.848-.347 2.615-.685.728-.32 1.486-.65 2.426-.65 1.066 0 1.766.336 2.442.663.465.224.939.452 1.55.579.093-.083.186-.166.277-.251l.031-.03c-.854-.105-1.452-.394-2.037-.676-.664-.321-1.29-.624-2.263-.624-.855 0-1.538.301-2.26.618-.807.353-1.639.717-2.781.717-1.018 0-1.79-.34-2.542-.671-.76-.338-1.48-.656-2.46-.656-.858 0-1.541.295-2.268.607-.606.261-1.225.524-1.976.643-.117-.11-.23-.224-.344-.339.83-.08 1.504-.368 2.157-.649.731-.314 1.49-.641 2.43-.641 1.07 0 1.862.352 2.628.692.743.327 1.447.638 2.375.638 1.056 0 1.848-.348 2.615-.684.728-.32 1.486-.651 2.426-.651 1.066 0 1.766.337 2.442.663.618.298 1.258.606 2.213.665-.114.117-.235.233-.355.348l.041-.038c.217-.206.426-.418.627-.637-1.231-.003-1.984-.367-2.705-.717-.664-.32-1.29-.623-2.262-.623zm-4.971-19.574c-7.3 0-13.216 5.643-13.216 12.606 0 3.048 1.133 5.842 3.02 8.022l-.097-.113.166.002c1.058 0 1.854-.341 2.624-.675.731-.313 1.49-.638 2.43-.638 1.07 0 1.862.35 2.628.69.744.327 1.447.639 2.374.639 1.057 0 1.85-.348 2.616-.686.728-.319 1.482-.651 2.427-.651 1.065 0 1.765.337 2.441.664.689.333 1.4.677 2.544.677.112 0 .217-.005.327-.013l-.133.154c1.913-2.187 3.064-5 3.064-8.072 0-6.963-5.916-12.606-13.215-12.606zm7.447 2.527v5.108c0 .897-.701 1.616-1.305 2.084-.601.467-4.797 2.909-5.248 3.448-.454.539-.499 1.328-.499 1.94v4.874h-.626v-9.33c0-1.15.484-2.081 1.878-3.016 1.39-.934 4.217-2.391 4.834-3.161.543-.677.966-1.23.966-1.947zm.008 6.216v3.116c0 .875-.07 1.888-1.131 2.63-1.277.885-3.22 1.931-4.062 2.772-.5.496-.744 1.123-.74 1.532v1.186h-.634l.004-4.56c0-.62.078-1.426.535-1.973.462-.547 4.528-2.92 5.141-3.39.277-.212.78-.706.875-1.169l.012-.144zM98.81 4.963c0 .862.678 1.582.98 1.977.298.393 2.912 2.405 4.192 3.34 1.28.934 1.556 1.497 1.556 2.969v9.123h-.619v-4.576c0-1.295-.485-2.199-1.015-2.702-.525-.503-2.272-1.76-3.513-2.623-1.243-.862-1.58-2.084-1.58-2.765zm-52.927 9.59c-2.09 0-3.363 1.963-3.363 3.788 0 1.827 1.272 3.818 3.363 3.818 2.086 0 3.392-1.991 3.392-3.818 0-1.825-1.306-3.789-3.392-3.789zm-17.257 1.52h-.871v5.81h.899c2.292 0 4.264-.278 4.264-2.988 0-2.638-2.198-2.814-4.292-2.822zm-.32-8.52h-.551v5.421h.523c2.086 0 3.101-.58 3.101-2.74 0-2.127-1.273-2.681-3.072-2.681z"/>
</svg>
